<svg width="235" height="235" viewBox="0 0 235 235" fill="none" xmlns="http://www.w3.org/2000/svg">
<path d="M162.64 195.833C175.76 195.931 188.392 191.035 198.085 182.223C230.104 154.219 212.969 98.0146 170.767 92.7271C155.687 1.27292 23.7936 35.9354 55.029 122.983" stroke="#0065F2" stroke-width="15" stroke-miterlimit="10" stroke-linecap="round" stroke-linejoin="round"/>
<path d="M71.2834 126.998C66.0939 124.354 60.3168 122.983 54.5397 123.081C8.91049 126.313 9.00841 192.7 54.5397 195.931" stroke="#0065F2" stroke-width="15" stroke-miterlimit="10" stroke-linecap="round" stroke-linejoin="round"/>
<path d="M154.904 96.8396C159.996 94.2938 165.479 92.9229 171.158 92.825" stroke="#0065F2" stroke-width="15" stroke-miterlimit="10" stroke-linecap="round" stroke-linejoin="round"/>
<path d="M97.6229 195.833L78.0396 215.417" stroke="#0065F2" stroke-width="15" stroke-miterlimit="10" stroke-linecap="round" stroke-linejoin="round"/>
<path d="M136.79 195.833L117.206 215.417" stroke="#0065F2" stroke-width="15" stroke-miterlimit="10" stroke-linecap="round" stroke-linejoin="round"/>
<path d="M136.79 156.667L117.206 176.25" stroke="#0065F2" stroke-width="15" stroke-miterlimit="10" stroke-linecap="round" stroke-linejoin="round"/>
<path d="M97.6229 156.667L78.0396 176.25" stroke="#0065F2" stroke-width="15" stroke-miterlimit="10" stroke-linecap="round" stroke-linejoin="round"/>
</svg>
