<svg width="235" height="235" viewBox="0 0 235 235" fill="none" xmlns="http://www.w3.org/2000/svg">
<path d="M162.64 195.833C175.76 195.931 188.392 191.035 198.085 182.223C230.104 154.219 212.969 98.0146 170.767 92.7271C155.688 1.27292 23.7936 35.9354 55.029 122.983" stroke="#0065F2" stroke-width="15" stroke-miterlimit="10" stroke-linecap="round" stroke-linejoin="round"/>
<path d="M71.2834 126.998C66.0938 124.354 60.3167 122.983 54.5396 123.081C8.9105 126.313 9.00842 192.7 54.5396 195.931" stroke="#0065F2" stroke-width="15" stroke-miterlimit="10" stroke-linecap="round" stroke-linejoin="round"/>
<path d="M154.904 96.8396C159.996 94.2938 165.479 92.9229 171.158 92.825" stroke="#0065F2" stroke-width="15" stroke-miterlimit="10" stroke-linecap="round" stroke-linejoin="round"/>
<path d="M90.3771 187.608H100.169V210.423C100.169 213.752 104.379 215.417 106.533 212.871L130.523 185.552C133.46 182.223 132.188 179.481 127.781 179.481H117.99V156.667C117.99 153.338 113.779 151.673 111.625 154.219L87.6355 181.538C84.698 184.867 85.9709 187.608 90.3771 187.608Z" stroke="#0065F2" stroke-width="10" stroke-miterlimit="10" stroke-linecap="round" stroke-linejoin="round"/>
</svg>
